<?xml version="1.0" standalone="no"?>
<!DOCTYPE svg PUBLIC "-//W3C//DTD SVG 20010904//EN"
 "http://www.w3.org/TR/2001/REC-SVG-20010904/DTD/svg10.dtd">
<svg version="1.0" xmlns="http://www.w3.org/2000/svg"
 width="512.000000pt" height="512.000000pt" viewBox="0 0 512.000000 512.000000"
 preserveAspectRatio="xMidYMid meet">
<metadata>
Created by potrace 1.14, written by Peter Selinger 2001-2017
</metadata>
<g transform="translate(0.000000,512.000000) scale(0.100000,-0.100000)"
fill="#000000" stroke="none">
<path d="M2145 4950 c-225 -94 -419 -174 -430 -180 -11 -5 -58 -25 -105 -43
-88 -36 -718 -296 -780 -323 -80 -34 -80 -34 -136 -169 -30 -71 -58 -139 -63
-150 -5 -11 -19 -45 -31 -75 -12 -30 -28 -68 -35 -85 -8 -16 -73 -174 -145
-350 -72 -176 -153 -372 -180 -435 -27 -63 -92 -220 -144 -348 l-96 -233 56
-137 c31 -75 62 -150 69 -167 13 -30 317 -762 512 -1235 58 -140 111 -260 117
-266 6 -6 415 -179 909 -383 l898 -371 487 201 c268 110 501 207 517 214 53
23 260 110 265 111 3 0 16 5 30 11 14 6 131 55 260 108 129 54 240 102 246
109 6 6 76 166 154 356 130 317 277 671 350 845 69 164 185 446 216 523 l34
83 -104 252 c-57 139 -144 349 -194 467 -49 118 -169 409 -267 645 -97 237
-182 435 -189 441 -6 6 -166 76 -356 154 -190 78 -358 148 -375 155 -25 11
-370 154 -958 397 -64 26 -118 48 -120 48 -1 -1 -186 -77 -412 -170z m683 9
c147 -61 436 -181 642 -266 206 -85 389 -161 405 -168 17 -8 82 -35 145 -61
63 -25 124 -50 135 -55 11 -4 56 -23 99 -41 l80 -33 112 -270 c61 -148 227
-548 367 -888 l256 -617 -195 -473 c-108 -259 -202 -485 -209 -502 -7 -16 -84
-203 -172 -414 l-158 -385 -90 -37 c-50 -21 -106 -44 -125 -52 -19 -9 -222
-92 -450 -186 -228 -94 -424 -176 -435 -181 -11 -5 -168 -70 -348 -145 l-328
-135 -267 111 c-147 61 -308 128 -359 149 -51 21 -105 43 -120 50 -15 7 -253
105 -527 218 l-500 207 -72 175 c-40 96 -79 191 -88 210 -8 19 -81 195 -161
390 -81 195 -162 391 -180 435 -19 44 -79 189 -134 323 l-100 243 15 37 c9 20
174 419 367 886 l352 849 100 42 c55 24 271 113 480 200 713 294 1080 446
1111 460 29 13 75 33 82 34 1 1 123 -49 270 -110z"/>
<path d="M1968 3085 c-2 -2 -24 -6 -49 -9 -241 -32 -439 -205 -477 -416 -15
-80 -7 -205 17 -280 55 -175 218 -314 416 -355 93 -20 249 -19 338 1 75 17
176 57 179 71 8 42 20 213 14 213 -3 0 -22 -32 -41 -71 -67 -132 -162 -196
-297 -201 -144 -5 -255 38 -353 138 -107 108 -160 254 -151 419 13 227 124
383 316 443 93 30 233 25 310 -10 80 -36 152 -127 184 -230 10 -33 26 -19 21
20 -2 20 -7 66 -10 102 -3 36 -8 72 -11 81 -5 19 -83 53 -159 70 -44 9 -240
20 -247 14z"/>
<path d="M2554 3058 c-3 -4 7 -8 23 -9 63 -1 100 -15 115 -42 14 -26 20 -842
6 -892 -11 -42 -28 -55 -84 -61 -27 -4 -53 -10 -58 -15 -6 -5 75 -9 197 -9
131 0 207 4 207 10 0 6 -15 11 -32 11 -68 3 -94 14 -106 47 -6 15 -11 118 -11
240 l0 212 70 1 c38 0 179 0 314 0 135 0 248 0 253 0 13 -2 7 -433 -7 -459
-15 -28 -49 -42 -102 -42 -21 0 -39 -4 -39 -10 0 -6 75 -10 205 -10 123 1 205
5 205 10 0 6 -15 10 -34 10 -53 0 -94 19 -104 48 -5 15 -9 220 -8 465 l1 439
24 19 c13 10 35 20 50 21 14 0 31 2 36 3 6 2 16 3 23 4 6 0 12 5 12 9 0 10
-396 9 -406 -1 -4 -4 -1 -7 7 -8 80 -4 125 -21 135 -53 4 -12 8 -108 8 -213
l1 -193 -322 0 -322 0 1 193 c1 105 4 200 6 210 9 33 47 50 135 56 4 1 7 4 7
9 0 10 -400 11 -406 0z"/>
</g>
</svg>
