<svg xmlns="http://www.w3.org/2000/svg"><style>:root svg:not(:target){display:none}</style><svg fill="none" id="icon-close" viewBox="0 0 20 20"><path d="M.293 18.291a1 1 0 1 0 1.414 1.414L10 11.413l8.292 8.292a1 1 0 1 0 1.414-1.414l-8.292-8.292 8.292-8.292A1 1 0 1 0 18.291.293L9.999 8.585 1.707.293A1 1 0 1 0 .293 1.707L8.585 10 .293 18.291z" fill="#fff"></path></svg><svg fill="none" id="icon-search" viewBox="0 0 14 14"><path d="M11.048 10.074 14 13.024l-.975.976-2.951-2.952A6.205 6.205 0 0 1 0 6.202 6.205 6.205 0 0 1 6.203 0a6.205 6.205 0 0 1 4.845 10.074Zm-1.382-.512a4.808 4.808 0 0 0 1.36-3.36 4.823 4.823 0 0 0-4.823-4.824 4.822 4.822 0 0 0-4.825 4.825 4.823 4.823 0 0 0 4.825 4.824 4.808 4.808 0 0 0 3.36-1.361l.103-.104Z" fill="currentColor"></path></svg></svg>